<svg>
    <symbol id="search" viewBox="0 0 24 24" fill="none" xmlns="http://www.w3.org/2000/svg">
        <path fill-rule="evenodd" clip-rule="evenodd" d="M14.5 4.5C11.1863 4.5 8.50005 7.18629 8.50005 10.5C8.50005 10.7761 8.27619 11 8.00005 11C7.7239 11 7.50005 10.7761 7.50005 10.5C7.50005 6.63401 10.6341 3.5 14.5 3.5C18.366 3.5 21.5 6.63401 21.5 10.5C21.5 14.366 18.366 17.5 14.5 17.5C12.7668 17.5 11.18 16.8695 9.95766 15.8262L3.28319 20.4121C3.0556 20.5685 2.74432 20.5107 2.58795 20.2831C2.43157 20.0555 2.4893 19.7443 2.7169 19.5879L9.7169 14.7783C9.91232 14.6441 10.1752 14.6655 10.3462 14.8297C11.4248 15.8647 12.8877 16.5 14.5 16.5C17.8138 16.5 20.5 13.8137 20.5 10.5C20.5 7.18629 17.8138 4.5 14.5 4.5Z" fill="currentColor"/>
    </symbol>
    <symbol id="arrowLeft" viewBox="0 0 24 24" fill="none" xmlns="http://www.w3.org/2000/svg">
        <path fill-rule="evenodd" clip-rule="evenodd" d="M15.3454 3.51474C15.5424 3.55076 15.7837 3.66314 16.0565 3.95008C16.3288 4.23631 16.4437 4.49825 16.4829 4.72261C16.5227 4.95067 16.4903 5.17601 16.4121 5.39333C16.2503 5.84281 15.9155 6.19668 15.787 6.324L15.7813 6.32962L12.0666 10.2528L12.7928 10.9403L16.4966 7.02861C16.6539 6.87227 17.1153 6.39216 17.3529 5.73202C17.4759 5.39036 17.5441 4.98667 17.468 4.55067C17.3913 4.11096 17.1738 3.67381 16.7812 3.26094C16.3892 2.84876 15.9656 2.61157 15.5254 2.53106C15.0884 2.45114 14.6838 2.53443 14.3412 2.67851C13.69 2.95243 13.1874 3.48122 12.9662 3.71401C12.962 3.71845 12.9578 3.72277 12.9538 3.72699L7.63495 9.31987C6.8917 10.1014 6.49997 11.037 6.49997 11.9948C6.49997 12.9525 6.8917 13.8882 7.63494 14.6697C8.46528 15.5429 9.26734 16.3718 9.9978 17.1266C11.2719 18.4433 12.3282 19.5349 12.9368 20.2438C13.1677 20.5127 13.6756 21.0575 14.3457 21.3317C14.6908 21.473 15.0957 21.5495 15.5312 21.4645C15.969 21.379 16.3905 21.1395 16.7812 20.7287C17.1738 20.3158 17.3925 19.8773 17.4662 19.4316C17.5393 18.9897 17.4637 18.5786 17.3294 18.2255C17.0718 17.5483 16.5714 17.0224 16.3488 16.7884L12.792 13.0484L12.0674 13.7375L15.6133 17.4661C15.8397 17.7042 16.2134 18.1043 16.3948 18.5811C16.4821 18.8106 16.5173 19.0403 16.4796 19.2684C16.4425 19.4927 16.3288 19.7533 16.0565 20.0395C15.7824 20.3278 15.539 20.4441 15.3396 20.483C15.138 20.5224 14.9335 20.4918 14.7245 20.4063C14.2864 20.227 13.9078 19.8396 13.6955 19.5923C13.0683 18.8619 11.9744 17.7312 10.6796 16.393C9.95374 15.6428 9.16476 14.8273 8.35958 13.9806C7.7731 13.3639 7.49997 12.6683 7.49997 11.9948C7.49997 11.3212 7.77309 10.6257 8.35957 10.009L13.6785 4.41613C13.9072 4.17556 14.2845 3.78722 14.7289 3.6003C14.9404 3.51135 15.1452 3.47813 15.3454 3.51474Z" fill="currentColor"/>
    </symbol>
    <symbol id="arrowDown" viewBox="0 0 24 24" fill="none" xmlns="http://www.w3.org/2000/svg">
        <path fill-rule="evenodd" clip-rule="evenodd" d="M3.51474 8.65449C3.55076 8.45757 3.66314 8.21628 3.95008 7.94339C4.23631 7.67118 4.49825 7.55619 4.72261 7.51703C4.95067 7.47723 5.17601 7.50966 5.39333 7.58789C5.84281 7.74968 6.19668 8.08443 6.324 8.21293L6.32962 8.2186L10.2528 11.9333L10.9403 11.2072L7.02861 7.5033C6.87227 7.34601 6.39216 6.88461 5.73202 6.64699C5.39036 6.524 4.98667 6.45583 4.55067 6.53193C4.11096 6.60867 3.67381 6.82611 3.26094 7.21876C2.84876 7.61076 2.61157 8.03434 2.53106 8.47459C2.45114 8.91154 2.53443 9.31616 2.67851 9.65873C2.95243 10.31 3.48122 10.8125 3.71401 11.0338C3.71845 11.038 3.72277 11.0421 3.72699 11.0461L9.31986 16.365C10.1014 17.1082 11.037 17.5 11.9948 17.5C12.9525 17.5 13.8882 17.1082 14.6697 16.365C15.5429 15.5347 16.3718 14.7326 17.1266 14.0021C18.4433 12.728 19.5349 11.6718 20.2438 11.0631C20.5127 10.8322 21.0575 10.3243 21.3317 9.65425C21.473 9.30919 21.5495 8.90422 21.4645 8.46875C21.379 8.0309 21.1395 7.60945 20.7287 7.21877C20.3158 6.82616 19.8773 6.60745 19.4316 6.53374C18.9897 6.46065 18.5786 6.53622 18.2255 6.67052C17.5483 6.92812 17.0224 7.42855 16.7884 7.65118L13.0484 11.2079L13.7375 11.9326L17.4661 8.38664C17.7042 8.16022 18.1043 7.78654 18.5811 7.60517C18.8106 7.51785 19.0403 7.48261 19.2684 7.52033C19.4927 7.55743 19.7533 7.67115 20.0395 7.9434C20.3278 8.21758 20.4441 8.46099 20.483 8.66031C20.5224 8.86199 20.4918 9.06648 20.4063 9.27547C20.227 9.71351 19.8396 10.0921 19.5923 10.3044C18.8619 10.9316 17.7312 12.0256 16.393 13.3203C15.6428 14.0462 14.8273 14.8352 13.9806 15.6404C13.3639 16.2268 12.6683 16.5 11.9948 16.5C11.3212 16.5 10.6257 16.2268 10.009 15.6404L4.41613 10.3215C4.17556 10.0927 3.78722 9.71546 3.6003 9.27103C3.51135 9.05955 3.47813 8.8547 3.51474 8.65449Z" fill="currentColor"/>
    </symbol>
    <svg id="arrowReload" viewBox="0 0 24 24" fill="none" xmlns="http://www.w3.org/2000/svg">
        <path fill-rule="evenodd" clip-rule="evenodd" d="M4.78792 2.54722C4.59729 2.63651 4.48299 2.83564 4.50205 3.04528L5.00205 8.54528C5.02547 8.80282 5.2414 9.00001 5.5 9.00001H10.5C10.7035 9.00001 10.8867 8.87665 10.9633 8.68806C11.0398 8.49947 10.9944 8.28331 10.8485 8.14146L8.84465 6.19394C9.80338 5.74866 10.8721 5.50001 12 5.50001C16.1421 5.50001 19.5 8.85788 19.5 13C19.5 17.1421 16.1421 20.5 12 20.5C7.85786 20.5 4.5 17.1421 4.5 13C4.5 12.7239 4.27614 12.5 4 12.5C3.72386 12.5 3.5 12.7239 3.5 13C3.5 17.6944 7.30558 21.5 12 21.5C16.6944 21.5 20.5 17.6944 20.5 13C20.5 8.30559 16.6944 4.50001 12 4.50001C10.4526 4.50001 9.00038 4.91395 7.74964 5.63747C7.61406 5.71589 7.52307 5.85332 7.5038 6.00875C7.48453 6.16418 7.5392 6.31967 7.65152 6.42883L9.26814 8.00001H5.95661L5.62298 4.3301L6.14645 4.85357C6.34171 5.04883 6.65829 5.04883 6.85355 4.85357C7.04882 4.65831 7.04882 4.34172 6.85355 4.14646L5.35355 2.64646C5.2047 2.49761 4.97856 2.45793 4.78792 2.54722Z" fill="currentColor"/>
    </svg>
    <symbol id="close" viewBox="0 0 24 24" fill="none" xmlns="http://www.w3.org/2000/svg">
        <path fill-rule="evenodd" clip-rule="evenodd" d="M7.4038 5.28248C6.81801 4.69669 5.86827 4.69669 5.28248 5.28248C4.69669 5.86827 4.69669 6.81801 5.28248 7.4038L9.52512 11.6464C9.72038 11.8417 9.72038 12.1583 9.52512 12.3535L5.28248 16.5962C4.69669 17.182 4.69669 18.1317 5.28248 18.7175C5.86827 19.3033 6.81801 19.3033 7.4038 18.7175L11.6464 14.4749C11.8417 14.2796 12.1583 14.2796 12.3535 14.4749L16.5962 18.7175C17.182 19.3033 18.1317 19.3033 18.7175 18.7175C19.3033 18.1317 19.3033 17.182 18.7175 16.5962L14.4749 12.3535C14.2796 12.1583 14.2796 11.8417 14.4749 11.6464L18.7175 7.4038C19.3033 6.81801 19.3033 5.86827 18.7175 5.28248C18.1317 4.69669 17.182 4.69669 16.5962 5.28248L12.3535 9.52512C12.1583 9.72038 11.8417 9.72038 11.6464 9.52512C11.4512 9.32986 11.4512 9.01328 11.6464 8.81801L15.8891 4.57537C16.8654 3.59906 18.4483 3.59906 19.4246 4.57537C20.4009 5.55168 20.4009 7.1346 19.4246 8.11091L15.5355 12L19.4246 15.8891C20.4009 16.8654 20.4009 18.4483 19.4246 19.4246C18.4483 20.4009 16.8654 20.4009 15.8891 19.4246L12 15.5355L8.11091 19.4246C7.1346 20.4009 5.55168 20.4009 4.57537 19.4246C3.59906 18.4483 3.59906 16.8654 4.57537 15.8891L8.46446 12L4.57537 8.11091C3.59906 7.1346 3.59906 5.55168 4.57537 4.57537C5.55168 3.59906 7.1346 3.59906 8.11091 4.57537L10.2322 6.69669C10.4275 6.89196 10.4275 7.20854 10.2322 7.4038C10.037 7.59906 9.72038 7.59906 9.52512 7.4038L7.4038 5.28248Z" fill="currentColor"/>
    </symbol>
    <symbol id="logo" viewBox="0 0 218 129" fill="none" xmlns="http://www.w3.org/2000/svg">
        <path d="M32.82 51.54C28.58 51.54 24.94 50.66 21.9 48.9C18.9 47.14 16.6 44.64 15 41.4C13.4 38.12 12.6 34.26 12.6 29.82C12.6 25.38 13.4 21.54 15 18.3C16.6 15.06 18.9 12.56 21.9 10.8C24.94 9.04 28.58 8.16 32.82 8.16C35.86 8.16 38.56 8.62 40.92 9.54C43.28 10.42 45.34 11.72 47.1 13.44L45.06 17.94C43.14 16.26 41.24 15.06 39.36 14.34C37.52 13.58 35.38 13.2 32.94 13.2C28.26 13.2 24.68 14.64 22.2 17.52C19.72 20.4 18.48 24.5 18.48 29.82C18.48 35.14 19.72 39.26 22.2 42.18C24.68 45.06 28.26 46.5 32.94 46.5C35.38 46.5 37.52 46.14 39.36 45.42C41.24 44.66 43.14 43.44 45.06 41.76L47.1 46.2C45.34 47.92 43.26 49.24 40.86 50.16C38.5 51.08 35.82 51.54 32.82 51.54ZM65.2448 51.54C62.2848 51.54 59.7248 50.92 57.5648 49.68C55.4048 48.4 53.7248 46.6 52.5248 44.28C51.3248 41.92 50.7248 39.12 50.7248 35.88C50.7248 32.68 51.3248 29.92 52.5248 27.6C53.7248 25.24 55.4048 23.44 57.5648 22.2C59.7248 20.92 62.2848 20.28 65.2448 20.28C68.2048 20.28 70.7648 20.92 72.9248 22.2C75.1248 23.44 76.8048 25.24 77.9648 27.6C79.1648 29.92 79.7648 32.68 79.7648 35.88C79.7648 39.12 79.1648 41.92 77.9648 44.28C76.8048 46.6 75.1248 48.4 72.9248 49.68C70.7648 50.92 68.2048 51.54 65.2448 51.54ZM65.2448 47.22C67.9648 47.22 70.1448 46.26 71.7848 44.34C73.4248 42.42 74.2448 39.6 74.2448 35.88C74.2448 32.16 73.4248 29.36 71.7848 27.48C70.1448 25.6 67.9648 24.66 65.2448 24.66C62.4848 24.66 60.2848 25.6 58.6448 27.48C57.0448 29.36 56.2448 32.16 56.2448 35.88C56.2448 39.6 57.0448 42.42 58.6448 44.34C60.2848 46.26 62.4848 47.22 65.2448 47.22ZM99.8152 51.54C96.8552 51.54 94.2952 50.92 92.1352 49.68C89.9752 48.4 88.2952 46.6 87.0952 44.28C85.8952 41.92 85.2952 39.12 85.2952 35.88C85.2952 32.68 85.8952 29.92 87.0952 27.6C88.2952 25.24 89.9752 23.44 92.1352 22.2C94.2952 20.92 96.8552 20.28 99.8152 20.28C102.775 20.28 105.335 20.92 107.495 22.2C109.695 23.44 111.375 25.24 112.535 27.6C113.735 29.92 114.335 32.68 114.335 35.88C114.335 39.12 113.735 41.92 112.535 44.28C111.375 46.6 109.695 48.4 107.495 49.68C105.335 50.92 102.775 51.54 99.8152 51.54ZM99.8152 47.22C102.535 47.22 104.715 46.26 106.355 44.34C107.995 42.42 108.815 39.6 108.815 35.88C108.815 32.16 107.995 29.36 106.355 27.48C104.715 25.6 102.535 24.66 99.8152 24.66C97.0552 24.66 94.8552 25.6 93.2152 27.48C91.6152 29.36 90.8152 32.16 90.8152 35.88C90.8152 39.6 91.6152 42.42 93.2152 44.34C94.8552 46.26 97.0552 47.22 99.8152 47.22ZM121.665 51V6.84H127.125V34.14H127.245L140.865 20.82H147.645L131.445 36.66L131.505 34.08L149.085 51H142.125L127.245 36.96H127.125V51H121.665Z" fill="currentColor"/>
        <path d="M63.0745 118V75.7H81.6145C86.2145 75.7 89.7545 76.68 92.2345 78.64C94.7145 80.56 95.9545 83.24 95.9545 86.68C95.9545 89.24 95.1945 91.4 93.6745 93.16C92.1545 94.92 90.0545 96.1 87.3745 96.7V95.8C90.4545 96.24 92.8345 97.36 94.5145 99.16C96.2345 100.92 97.0945 103.26 97.0945 106.18C97.0945 109.94 95.7945 112.86 93.1945 114.94C90.5945 116.98 86.9745 118 82.3345 118H63.0745ZM70.5145 112.12H81.4345C84.0345 112.12 86.0545 111.64 87.4945 110.68C88.9345 109.68 89.6545 108.06 89.6545 105.82C89.6545 103.54 88.9345 101.92 87.4945 100.96C86.0545 99.96 84.0345 99.46 81.4345 99.46H70.5145V112.12ZM70.5145 93.64H80.2945C83.0545 93.64 85.0945 93.14 86.4145 92.14C87.7745 91.1 88.4545 89.58 88.4545 87.58C88.4545 85.58 87.7745 84.08 86.4145 83.08C85.0945 82.04 83.0545 81.52 80.2945 81.52H70.5145V93.64ZM117.58 118.6C114.46 118.6 111.76 117.96 109.48 116.68C107.2 115.4 105.42 113.58 104.14 111.22C102.9 108.86 102.28 106.06 102.28 102.82C102.28 99.58 102.9 96.8 104.14 94.48C105.42 92.12 107.2 90.3 109.48 89.02C111.76 87.74 114.46 87.1 117.58 87.1C120.7 87.1 123.4 87.74 125.68 89.02C128 90.3 129.78 92.12 131.02 94.48C132.3 96.8 132.94 99.58 132.94 102.82C132.94 106.06 132.3 108.86 131.02 111.22C129.78 113.58 128 115.4 125.68 116.68C123.4 117.96 120.7 118.6 117.58 118.6ZM117.58 112.84C119.94 112.84 121.82 112.02 123.22 110.38C124.62 108.7 125.32 106.18 125.32 102.82C125.32 99.46 124.62 96.96 123.22 95.32C121.82 93.68 119.94 92.86 117.58 92.86C115.22 92.86 113.34 93.68 111.94 95.32C110.54 96.96 109.84 99.46 109.84 102.82C109.84 106.18 110.54 108.7 111.94 110.38C113.34 112.02 115.22 112.84 117.58 112.84ZM153.088 118.6C149.968 118.6 147.268 117.96 144.988 116.68C142.708 115.4 140.928 113.58 139.648 111.22C138.408 108.86 137.788 106.06 137.788 102.82C137.788 99.58 138.408 96.8 139.648 94.48C140.928 92.12 142.708 90.3 144.988 89.02C147.268 87.74 149.968 87.1 153.088 87.1C156.208 87.1 158.908 87.74 161.188 89.02C163.508 90.3 165.288 92.12 166.528 94.48C167.808 96.8 168.448 99.58 168.448 102.82C168.448 106.06 167.808 108.86 166.528 111.22C165.288 113.58 163.508 115.4 161.188 116.68C158.908 117.96 156.208 118.6 153.088 118.6ZM153.088 112.84C155.448 112.84 157.328 112.02 158.728 110.38C160.128 108.7 160.828 106.18 160.828 102.82C160.828 99.46 160.128 96.96 158.728 95.32C157.328 93.68 155.448 92.86 153.088 92.86C150.728 92.86 148.848 93.68 147.448 95.32C146.048 96.96 145.348 99.46 145.348 102.82C145.348 106.18 146.048 108.7 147.448 110.38C148.848 112.02 150.728 112.84 153.088 112.84ZM174.916 118V73.84H182.416V100.6H182.536L194.836 87.7H203.896L188.596 103.72L188.656 100.72L204.976 118H195.676L182.536 104.44H182.416V118H174.916Z" fill="#FF7B2C"/>
        <path fill-rule="evenodd" clip-rule="evenodd" d="M39.5052 65.675C39.8421 65.953 40.0417 66.3995 40.0417 66.8749V72.7916C40.0417 73.6085 39.4634 74.2708 38.75 74.2708C38.0366 74.2708 37.4583 73.6085 37.4583 72.7916V68.9272L21.8784 74.8743L46.6073 77.2342C47.2767 77.2981 47.7917 77.939 47.7917 78.7083V120.125C47.7917 120.539 47.6404 120.933 47.3746 121.213C47.1088 121.494 46.7527 121.633 46.3927 121.599L15.3927 118.641C14.7233 118.577 14.2083 117.936 14.2083 117.167V81.6666C14.2083 80.8497 14.7866 80.1874 15.5 80.1874C16.2134 80.1874 16.7917 80.8497 16.7917 81.6666V115.806L45.2083 118.517V80.0693L15.3927 77.224C14.7816 77.1657 14.2905 76.6233 14.2175 75.926C14.1445 75.2287 14.5097 74.5688 15.0915 74.3467L38.3415 65.4717C38.7354 65.3213 39.1684 65.397 39.5052 65.675Z" fill="currentColor"/>
    </symbol>
    <symbol id="facebook" viewBox="0 0 24 24" fill="none" xmlns="http://www.w3.org/2000/svg">
        <path fill-rule="evenodd" clip-rule="evenodd" d="M10.4995 7.30874C10.393 8.1575 10.3923 9.05709 10.3923 9.9425C10.3923 10.2186 10.1685 10.4425 9.89231 10.4425H7.5V12.7538H9.89231C10.1685 12.7538 10.3923 12.9777 10.3923 13.2538V21C10.3923 21.2762 10.1685 21.5 9.89231 21.5C9.61617 21.5 9.39231 21.2762 9.39231 21V13.7538H7C6.72386 13.7538 6.5 13.53 6.5 13.2538V9.9425C6.5 9.66636 6.72386 9.4425 7 9.4425H9.39301C9.39614 8.70911 9.41331 7.93296 9.50726 7.18425C9.62293 6.26234 9.85913 5.34093 10.3595 4.55832C11.403 2.92633 13.4341 2.1173 17.0761 2.67781C17.32 2.71535 17.5 2.92522 17.5 3.17199V6.03985C17.5 6.1816 17.4398 6.3167 17.3345 6.41152C17.2291 6.50634 17.0884 6.55198 16.9474 6.53708C15.3986 6.37338 14.83 6.57598 14.5516 6.94147C14.3963 7.14541 14.2786 7.46242 14.2066 7.97235C14.1503 8.37157 14.1261 8.85529 14.1184 9.4425H17C17.1502 9.4425 17.2924 9.51 17.3873 9.62633C17.4823 9.74267 17.5199 9.89552 17.4899 10.0426L16.8129 13.354C16.7654 13.5867 16.5606 13.7538 16.3231 13.7538H14.1154V21C14.1154 21.2762 13.8915 21.5 13.6154 21.5C13.3392 21.5 13.1154 21.2762 13.1154 21V13.2538C13.1154 12.9777 13.3392 12.7538 13.6154 12.7538H15.9149L16.3874 10.4425H13.6154C13.3392 10.4425 13.1154 10.2186 13.1154 9.9425C13.1154 9.12077 13.1342 8.41555 13.2164 7.83262C13.2983 7.25231 13.4498 6.73779 13.7561 6.33563C14.3204 5.5945 15.2517 5.41948 16.5 5.49568V3.60636C13.3324 3.20155 11.9049 3.99772 11.202 5.097C10.8139 5.70397 10.6059 6.46042 10.4995 7.30874Z" fill="currentColor"/>
    </symbol>
    <symbol id="instagram" viewBox="0 0 24 24" fill="none" xmlns="http://www.w3.org/2000/svg">
        <path fill-rule="evenodd" clip-rule="evenodd" d="M7.43507 2.50027L7.45159 2.5H14.5161C14.7521 2.5 14.9559 2.66498 15.0051 2.89577C15.0543 3.12656 14.9354 3.36033 14.72 3.45655C14.6593 3.48365 14.597 3.51135 14.5334 3.53968C13.3733 4.05603 11.7454 4.78061 10.388 5.92435C8.97183 7.11762 7.88613 8.73644 7.95139 11.0294C8.01908 13.4079 9.16133 14.8348 10.462 15.4521C11.792 16.0833 13.2848 15.8823 14.1629 15.0058C15.0574 14.1128 15.2953 12.6538 14.8856 11.3893C14.4826 10.1456 13.489 9.18937 12 9.18937C11.7238 9.18937 11.5 8.96552 11.5 8.68937C11.5 8.41323 11.7238 8.18937 12 8.18937C14.011 8.18937 15.3297 9.51584 15.8369 11.0811C16.3373 12.6255 16.0833 14.5017 14.8694 15.7135C13.6389 16.9419 11.672 17.1333 10.0332 16.3555C8.36502 15.5637 7.02927 13.7801 6.95179 11.0578C6.87543 8.37462 8.16877 6.48663 9.74364 5.15963C10.5538 4.47699 11.4479 3.93478 12.2798 3.5H7.46023C6.82379 3.52303 5.83518 3.79943 5.00973 4.56665C4.19599 5.32298 3.49998 6.59431 3.49998 8.68937V16.1393C3.5154 16.8606 3.77508 17.9597 4.49704 18.868C5.20332 19.7566 6.37996 20.5 8.32256 20.5H16.1376C16.8471 20.4301 17.9352 20.0733 18.8434 19.2215C19.7457 18.3754 20.5 17.0138 20.5 14.8692V7.32526C20.485 6.94343 20.3407 6.3534 19.9632 5.86468C19.5992 5.39354 18.999 4.98834 17.9915 4.97132C16.9876 4.95436 16.5628 5.3491 16.3908 5.70128C16.2959 5.89557 16.2616 6.10773 16.2739 6.29826C16.2866 6.4961 16.3462 6.63128 16.3934 6.69146C16.7304 7.12121 17.0296 7.13172 17.1841 7.08555C17.3745 7.02867 17.5 6.85671 17.5 6.67847C17.5 6.40233 17.7238 6.17847 18 6.17847C18.2761 6.17847 18.5 6.40233 18.5 6.67847C18.5 7.32177 18.0618 7.86699 17.4704 8.0437C16.8431 8.23112 16.1422 7.99163 15.6065 7.30854C15.4037 7.04992 15.298 6.70472 15.276 6.36253C15.2535 6.01304 15.3149 5.62554 15.4922 5.26248C15.8646 4.49995 16.6897 3.94918 18.0084 3.97146C19.3236 3.99368 20.2072 4.54488 20.7545 5.25331C21.2856 5.94067 21.4806 6.74844 21.4997 7.29878L21.5 7.31608V14.8692C21.5 17.2761 20.6413 18.9064 19.5275 19.951C18.4289 20.9812 17.1108 21.4155 16.2067 21.4979C16.1916 21.4993 16.1764 21.5 16.1613 21.5H8.32256C6.08451 21.5 4.61599 20.6248 3.7142 19.4903C2.82971 18.3775 2.51796 17.0517 2.50008 16.1544L2.49988 16.1444L2.49998 8.68937C2.49998 6.35065 3.28784 4.80182 4.32893 3.83417C5.35491 2.88058 6.58734 2.52829 7.43507 2.50027Z" fill="currentColor"/>
    </symbol>
    <symbol id="telegram" viewBox="0 0 24 24" fill="none" xmlns="http://www.w3.org/2000/svg">
        <path fill-rule="evenodd" clip-rule="evenodd" d="M21.3489 4.64183C21.4734 4.76317 21.526 4.94053 21.4877 5.11016C20.9359 7.55335 19.7598 13.9696 19.4822 20.0229C19.474 20.2015 19.3712 20.362 19.2124 20.4441C19.0537 20.5262 18.8632 20.5173 18.7127 20.4208C16.3647 18.9142 11.6602 16.0278 11.0091 15.6323C10.8858 15.5573 10.8008 15.4327 10.7761 15.2905C10.7514 15.1482 10.7894 15.0023 10.8803 14.8901C10.9514 14.8024 11.0276 14.706 11.1105 14.6011C11.5439 14.0526 12.1621 13.2704 13.2013 12.2766C13.4009 12.0858 13.7174 12.0929 13.9083 12.2925C14.0991 12.4921 14.092 12.8086 13.8924 12.9994C12.9904 13.862 12.432 14.5445 12.0123 15.0733C13.2789 15.8492 16.4196 17.7821 18.5284 19.1177C18.8395 13.8342 19.7665 8.44365 20.3378 5.69741C16.0184 6.93311 8.54822 10.0196 4.32406 11.8562L7.98141 13.2367C9.62636 12.1619 13.2647 9.91045 16.2836 8.46108C16.5325 8.34157 16.8312 8.44648 16.9507 8.69542C17.0703 8.94436 16.9653 9.24305 16.7164 9.36257C13.6191 10.8496 9.82741 13.2144 8.3188 14.2115C8.18492 14.3 8.01669 14.3189 7.86654 14.2622L2.82343 12.3587C2.63357 12.287 2.50586 12.1077 2.5002 11.9048C2.49453 11.702 2.61203 11.5158 2.7976 11.4337C6.88855 9.62258 16.2667 5.68497 20.8771 4.51536C21.0456 4.4726 21.2243 4.52049 21.3489 4.64183Z" fill="currentColor"/>
    </symbol>
    <symbol id="twitter" viewBox="0 0 24 24" fill="none" xmlns="http://www.w3.org/2000/svg">
        <path fill-rule="evenodd" clip-rule="evenodd" d="M3.48366 4.50129C3.69784 4.48594 3.89791 4.60907 3.98071 4.8072C4.65474 6.41989 6.0646 7.59126 7.61457 8.40147C8.91301 9.08019 10.2693 9.48367 11.2698 9.67576C11.3709 8.53046 11.6537 7.63841 12.0833 6.96373C12.5876 6.17191 13.2745 5.71137 14.0244 5.49345C15.4431 5.08119 17.0383 5.54585 18.0854 6.07381C18.6178 6.11624 19.1448 6.09377 19.6049 6.01495C20.1007 5.93003 20.4799 5.78646 20.7092 5.62254C20.8683 5.50879 21.0791 5.49826 21.2488 5.59559C21.4185 5.69291 21.5158 5.88022 21.4979 6.07499C21.3903 7.24666 21.0416 8.08435 20.6012 8.67818C20.2507 9.15078 19.8546 9.45218 19.5085 9.64326C18.5033 15.9374 15.5662 18.9348 12.1821 20.0126C8.81153 21.0861 5.13384 20.2091 2.78583 19.0961C2.53631 18.9779 2.4299 18.6797 2.54818 18.4302C2.66646 18.1806 2.96463 18.0742 3.21416 18.1925C5.4305 19.2431 8.83541 20.029 11.8786 19.0598C14.8622 18.1095 17.6361 15.4257 18.5594 9.23745C18.5847 9.06794 18.695 8.92319 18.8518 8.85391C19.1186 8.73599 19.48 8.51128 19.798 8.08247C20.0115 7.79466 20.2143 7.40291 20.3526 6.86843C20.1662 6.92297 19.9717 6.9667 19.7738 7.00059C19.1928 7.1001 18.542 7.12185 17.8975 7.06122C17.8328 7.05514 17.7699 7.03652 17.7124 7.00639C16.7655 6.51067 15.4027 6.13429 14.3035 6.45372C13.7736 6.6077 13.2934 6.92532 12.9268 7.50089C12.554 8.08633 12.2801 8.96901 12.2349 10.276C12.23 10.4171 12.1657 10.5496 12.0579 10.6407C11.9501 10.7318 11.8088 10.7731 11.6689 10.7543C10.5559 10.6054 8.8132 10.1564 7.15132 9.28769C5.88971 8.62822 4.64127 7.70892 3.76425 6.46499C3.63754 7.59792 3.64963 9.00448 3.97614 10.434C4.44702 12.4957 5.56438 14.5813 7.84332 15.9926C8.07393 16.1354 8.14862 16.436 8.01166 16.6701C7.71809 17.172 6.79262 18.0339 5.19572 18.2628C4.92237 18.302 4.66902 18.1122 4.62984 17.8388C4.59065 17.5655 4.78048 17.3121 5.05383 17.2729C5.91887 17.1489 6.49682 16.8044 6.82781 16.5197C4.59978 14.9509 3.48317 12.7667 3.00125 10.6567C2.48778 8.40861 2.68744 6.22111 3.03529 4.87492C3.08901 4.66702 3.26948 4.51663 3.48366 4.50129Z" fill="currentColor"/>
    </symbol>
</svg>
